<?xml version="1.0" encoding="utf-8"?>
<!-- Generator: Adobe Illustrator 27.8.0, SVG Export Plug-In . SVG Version: 6.00 Build 0)  -->
<svg version="1.1" id="Capa_1" xmlns="http://www.w3.org/2000/svg" xmlns:xlink="http://www.w3.org/1999/xlink" x="0px" y="0px"
	 viewBox="0 0 512 512" style="enable-background:new 0 0 512 512;" xml:space="preserve">
<style type="text/css">
	.st0{fill:#502C14;}
</style>
<g transform="translate(-1)">
	<g>
		<g>
			<path class="st0" d="M504.5,401.1c4.7,0,8.5-3.8,8.5-8.5c0-4.7-3.8-8.5-8.5-8.5h-8.5c0-4.7-3.8-8.5-8.5-8.5s-8.5,3.8-8.5,8.5
				H342.3c0-4.7-3.8-8.5-8.5-8.5c-4.7,0-8.5,3.8-8.5,8.5h-8.5c-4.7,0-8.5,3.8-8.5,8.5c0,4.7,3.8,8.5,8.5,8.5h8.5v25.6h-8.5
				c-4.7,0-8.5,3.8-8.5,8.5s3.8,8.5,8.5,8.5h8.5v8.5h-8.5c-4.7,0-8.5,3.8-8.5,8.5s3.8,8.5,8.5,8.5h8.5v25.6H180.2v-70.6
				c12.6,7.1,26.9,10.9,41.4,10.9c48.5-0.7,87.2-40.5,86.6-88.9c0.3-33.7-18.6-64.6-48.6-79.9c9.9-13.5,15.2-29.7,15.1-46.4
				c0.3-36.9-25.6-68.8-61.7-76.1c9.1-20.2,7.6-43.6-4.2-62.3c-11.8-18.8-32.1-30.4-54.3-30.9c-0.3,0-0.5,0-0.7,0
				c-4.5-29.4-30-50.9-59.7-50.6C64.4,0.4,39.5,22.5,35.6,52C14,56.1-0.9,76,1.2,97.9s20.5,38.6,42.5,38.6h49.7
				c0.8,2.5,1.7,4.9,2.7,7.2c-36.1,7.4-62,39.3-61.7,76.2c-0.1,16.7,5.2,33,15.1,46.5c-30,15.3-48.8,46.2-48.6,79.9
				c-0.6,48.5,38.2,88.2,86.6,88.9c14.5,0,28.7-3.8,41.4-10.9v70.6H9.5c-4.7,0-8.5,3.8-8.5,8.5s3.8,8.5,8.5,8.5h494.9
				c4.7,0,8.5-3.8,8.5-8.5s-3.8-8.5-8.5-8.5h-8.5v-25.6h8.5c4.7,0,8.5-3.8,8.5-8.5s-3.8-8.5-8.5-8.5h-8.5v-8.5h8.5
				c4.7,0,8.5-3.8,8.5-8.5s-3.8-8.5-8.5-8.5h-8.5v-25.6L504.5,401.1L504.5,401.1z M90.3,116.5c0,1,0.1,2,0.2,2.9H43.7
				c-14.1,0-25.6-11.5-25.6-25.6s11.5-25.6,25.6-25.6c2.3,0,4.4-0.9,6-2.5c1.6-1.6,2.5-3.8,2.5-6c0-22.3,17.1-40.8,39.3-42.5
				c22.2-1.7,42,13.9,45.4,36C109,61.7,90.1,87.4,90.3,116.5z M163.1,494.9h-17.1v-83.1c3.1-2.8,5.9-5.9,8.5-9.2
				c2.6,3.3,5.5,6.3,8.5,9.2L163.1,494.9L163.1,494.9z M164.2,386.5l56.2-56.2c3.3-3.3,3.3-8.7-0.1-12s-8.7-3.3-12-0.1l-45.2,45.2
				v-86.8l40.2-40.2c3.3-3.3,3.3-8.7,0-12c-3.3-3.3-8.7-3.3-12,0l-28.1,28.1v-39.1c0-4.7-3.8-8.5-8.5-8.5c-4.7,0-8.5,3.8-8.5,8.5
				v39.1L118,224.4c-3.3-3.3-8.7-3.3-12,0s-3.3,8.7,0,12l40.2,40.2v86.8l-45.2-45.2c-3.3-3.3-8.7-3.3-12,0c-3.3,3.3-3.3,8.7,0,12
				l56.2,56.2c-12.5,19.6-34.1,31.5-57.4,31.6c-39-0.7-70.2-32.8-69.6-71.9c-0.4-30.9,19.2-58.5,48.4-68.5c2.8-0.9,5-3.3,5.6-6.2
				s-0.2-5.9-2.3-8c-11.7-11.5-18.3-27.3-18.2-43.7c-0.6-32.6,25.2-59.5,57.7-60.4c3.5,0.3,6.9-1.5,8.6-4.6c1.5-2.9,1.2-6.3-0.7-8.9
				c-6.3-8.5-9.7-18.8-9.8-29.4c-0.4-26.5,20.7-48.4,47.3-48.9c26.5,0.5,47.7,22.4,47.3,48.9c0,10.6-3.4,20.9-9.8,29.4
				c-1.9,2.6-2.1,6.1-0.6,8.9c1.5,2.9,4.5,4.7,7.7,4.7c32.8,0.6,58.9,27.6,58.4,60.4c0.1,16.4-6.5,32.2-18.2,43.7
				c-2.1,2.1-3,5.1-2.3,8s2.8,5.2,5.6,6.2c32.8,11.5,52.8,44.6,47.6,79s-34.1,60.1-68.8,61.4C198.3,418.1,176.7,406.1,164.2,386.5z
				 M478.9,494.9H342.3v-25.6h136.5V494.9z M478.9,452.3H342.3v-8.5h136.5V452.3z M478.9,426.7H342.3v-25.6h136.5V426.7z"/>
			<path class="st0" d="M367.9,213.3h102.4c22,0,40.4-16.7,42.5-38.6c2.1-21.9-12.8-41.8-34.4-45.9c-3.9-29.7-29.2-52-59.2-52
				s-55.3,22.2-59.2,52c-21.6,4.1-36.5,24-34.4,45.9S345.9,213.3,367.9,213.3z M367.9,145.1c2.3,0,4.4-0.9,6-2.5
				c1.6-1.6,2.5-3.8,2.5-6c0-23.6,19.1-42.7,42.7-42.7s42.7,19.1,42.7,42.7c0,2.3,0.9,4.4,2.5,6c1.6,1.6,3.8,2.5,6,2.5
				c14.1,0,25.6,11.5,25.6,25.6s-11.5,25.6-25.6,25.6H367.9c-14.1,0-25.6-11.5-25.6-25.6S353.8,145.1,367.9,145.1z"/>
		</g>
	</g>
</g>
</svg>
