<?xml version="1.0" encoding="utf-8"?>
<!-- Generator: Adobe Illustrator 27.8.0, SVG Export Plug-In . SVG Version: 6.00 Build 0)  -->
<svg version="1.1" id="Layer_1" xmlns="http://www.w3.org/2000/svg" xmlns:xlink="http://www.w3.org/1999/xlink" x="0px" y="0px"
	 viewBox="0 0 512 512" style="enable-background:new 0 0 512 512;" xml:space="preserve">
<style type="text/css">
	.st0{fill:#502C14;}
</style>
<path class="st0" d="M496.2,199.7c-1.1-1.9-3-3-5.2-3H290c0,0,0,0-0.1,0l-55.9,0.6c5.5-8.7,9.8-18.2,9.8-28.5
	c0-25.8-21-46.9-46.9-46.9s-46.9,21-46.9,46.9c0,10.6,4.6,20.4,10.4,29.3c-1.4,0.3-2.7,1-3.6,2.2l-75.2,95.5
	c-0.2,0.2-0.4,0.5-0.6,0.8l-64.9,82.5c-1.4,1.8-1.7,4.2-0.7,6.3c1,2.1,3.1,3.4,5.3,3.4l136.7,1.3h0.1h228.1c2.1,0,4.1-1.1,5.2-3
	l105.2-181.4C497.3,203.9,497.3,201.6,496.2,199.7L496.2,199.7z M197,133.9c19.2,0,34.9,15.6,34.9,34.9c0,12.1-8.8,23.9-17.4,35.4
	c-2.8,3.7-5.7,7.6-8.2,11.4l-9.3,14.1l-9.3-14.1c-2.5-3.8-5.4-7.7-8.2-11.4c-8.5-11.4-17.4-23.2-17.4-35.4
	C162.2,149.6,177.8,133.9,197,133.9L197,133.9z M164.6,210l4.3,0c0.4,0.5,0.7,0.9,1,1.4c2.8,3.8,5.5,7.3,7.8,10.9l14.3,21.6
	c1.1,1.7,3,2.7,5,2.7s3.9-1,5-2.7l14.3-21.6c2.3-3.5,5-7.1,7.8-10.9c0.5-0.6,1-1.3,1.5-2l52.5-0.5L215,295.4l-116.5-1.4L164.6,210z
	 M89.1,305.9l117.2,1.4L154.7,378l-121.4-1.1L89.1,305.9z M382.4,378.1H169.5l82.9-113.6c0.1,0,0.3,0,0.4,0h19.8
	c0.6,15.6,10.9,29.4,19.9,41.5c2.9,3.8,5.5,7.4,7.9,11l14.5,21.9c1.1,1.7,3,2.7,5,2.7s3.9-1,5-2.7l14.5-21.9c2.4-3.6,5.1-7.2,7.9-11
	c9.1-12.1,19.3-25.9,19.9-41.5h81L382.4,378.1z M355.3,263c0,12.3-8.9,24.3-17.6,35.8c-2.8,3.8-5.7,7.7-8.3,11.5l-9.5,14.3
	l-9.5-14.3c-2.6-3.9-5.5-7.8-8.3-11.5c-8.6-11.6-17.6-23.5-17.6-35.8c0-19.5,15.9-35.4,35.4-35.4S355.3,243.5,355.3,263z
	 M455.2,252.5h-89.1c-4.8-21.1-23.7-36.9-46.2-36.9s-41.4,15.8-46.2,36.9h-12.6l31.9-43.8h187.5L455.2,252.5z M197,192
	c12.8,0,23.2-10.4,23.2-23.2s-10.4-23.2-23.2-23.2s-23.2,10.4-23.2,23.2S184.3,192,197,192L197,192z M197,157.6
	c6.2,0,11.2,5,11.2,11.2s-5,11.2-11.2,11.2c-6.2,0-11.2-5-11.2-11.2S190.9,157.6,197,157.6z M319.9,239.4c-13,0-23.5,10.6-23.5,23.5
	c0,13,10.6,23.5,23.5,23.5s23.5-10.6,23.5-23.5S332.9,239.4,319.9,239.4L319.9,239.4z M319.9,274.5c-6.4,0-11.5-5.2-11.5-11.5
	s5.2-11.5,11.5-11.5s11.5,5.2,11.5,11.5S326.3,274.5,319.9,274.5z"/>
</svg>
