<?xml version="1.0" encoding="utf-8"?>
<!-- Generator: Adobe Illustrator 27.8.0, SVG Export Plug-In . SVG Version: 6.00 Build 0)  -->
<svg version="1.1" id="Capa_1" xmlns="http://www.w3.org/2000/svg" xmlns:xlink="http://www.w3.org/1999/xlink" x="0px" y="0px"
	 viewBox="0 0 512 512" style="enable-background:new 0 0 512 512;" xml:space="preserve">
<style type="text/css">
	.st0{fill:#502C14;}
</style>
<g>
	<g>
		<path class="st0" d="M499.1,303.7h-22.6v-63.2c0-7.1-5.8-12.9-12.9-12.9h-5.3v-15c0-7.1-5.8-12.9-12.9-12.9H439l-57.7-59.2
			c-2.4-2.5-5.7-3.9-9.2-3.9s-6.8,1.4-9.2,3.9l-57.7,59.2h-6.5c-7.1,0-12.9,5.8-12.9,12.9v15h-5.3c-7.1,0-12.9,5.8-12.9,12.9v30h-76
			c-7.1,0-12.9,5.8-12.9,12.9v20.4h-14.6V279c0-4.1-3.4-7.5-7.5-7.5s-7.5,3.4-7.5,7.5v174.7h-11.8V200c2.1-3.5,4.1-7,5.9-10.6
			c1.8,3.6,3.7,7.2,5.9,10.6v44c0,4.1,3.4,7.5,7.5,7.5s7.5-3.4,7.5-7.5v-24c1.9,2.1,3.8,4.1,5.8,6.1h0
			c16.1,16.1,35.1,27.8,54.8,33.8c0.7,0.2,1.5,0.3,2.2,0.3c2,0,3.9-0.8,5.3-2.2c2-2,2.7-4.8,1.9-7.5c-6-19.8-17.7-38.7-33.8-54.8
			c-1.9-1.9-3.8-3.7-5.8-5.4c2.6,0.1,5.3,0.2,7.9,0.2c22.8,0,44.4-5.1,62.7-14.8c2.4-1.3,4-3.8,4-6.6s-1.5-5.3-4-6.6
			c-18.2-9.7-39.9-14.8-62.7-14.8c-2.7,0-5.3,0.1-7.9,0.2c2-1.8,3.9-3.6,5.8-5.4c16.1-16.1,27.8-35.1,33.8-54.8
			c0.8-2.7,0.1-5.5-1.9-7.5c-2-2-4.8-2.7-7.5-1.9c-19.8,6-38.7,17.7-54.8,33.8c0,0,0,0,0,0c-1.9,1.9-3.7,3.8-5.4,5.8
			c0.1-2.6,0.2-5.3,0.2-7.9c0-22.8-5.1-44.4-14.8-62.7c-1.3-2.4-3.8-4-6.6-4s-5.3,1.5-6.6,4c-9.7,18.2-14.8,39.9-14.8,62.7
			c0,2.7,0.1,5.3,0.2,7.9c-1.8-2-3.6-3.9-5.4-5.8c0,0,0,0,0,0c-16.1-16.1-35.1-27.8-54.8-33.8c-2.7-0.8-5.5-0.1-7.5,1.9
			s-2.7,4.8-1.9,7.5c6,19.8,17.7,38.7,33.8,54.8c1.9,1.9,3.8,3.7,5.8,5.4c-2.6-0.1-5.3-0.2-7.9-0.2c-22.8,0-44.4,5.1-62.7,14.8
			c-2.4,1.3-4,3.8-4,6.6s1.5,5.3,4,6.6c18.2,9.7,39.9,14.8,62.7,14.8c2.7,0,5.3-0.1,7.9-0.2c-2,1.8-3.9,3.6-5.8,5.4
			c-16.1,16.1-27.8,35.1-33.8,54.8c-0.8,2.7-0.1,5.5,1.9,7.5c1.4,1.4,3.3,2.2,5.3,2.2c0.7,0,1.5-0.1,2.2-0.3
			c19.7-6,38.7-17.7,54.8-33.8h0c2-2,3.9-4,5.8-6.1v83.6H12.9c-7.1,0-12.9,5.8-12.9,12.9v139.3c0,7.1,5.8,12.9,12.9,12.9H58
			c4.1,0,7.5-3.4,7.5-7.5s-3.4-7.5-7.5-7.5H15v-135h107.4v22.5h-14.3c-5.9,0-10.7,4.8-10.7,10.7v64.3c0,5.9,4.8,10.7,10.7,10.7h14.3
			v26.8H93c-4.1,0-7.5,3.4-7.5,7.5s3.4,7.5,7.5,7.5h406.1c7.1,0,12.9-5.8,12.9-12.9V316.5C512,309.4,506.2,303.7,499.1,303.7
			L499.1,303.7z M202.5,162.7c14.2,0,27.9,2.2,40.3,6.4c-12.4,4.2-26.1,6.4-40.3,6.4c-12.9,0-25.4-1.8-36.9-5.4
			c-0.7-0.4-1.4-0.7-2.1-1.1c0.7-0.3,1.4-0.7,2.1-1.1C177.1,164.6,189.6,162.7,202.5,162.7z M158.3,152.6
			c5.6-10.6,13.2-20.7,22.3-29.9h0c10-10,21.3-18.1,33-23.9c-5.8,11.8-13.9,23-23.9,33c-9.1,9.1-19.2,16.6-29.9,22.3
			c-0.8,0.2-1.5,0.5-2.3,0.7C157.9,154.1,158.1,153.4,158.3,152.6L158.3,152.6z M159.9,184.2c10.6,5.6,20.7,13.2,29.9,22.3
			c10,10,18.1,21.3,23.9,33c-11.8-5.8-23-13.9-33-23.9h0c-9.8-9.8-17.8-20.8-23.6-32.3C158,183.6,158.9,183.9,159.9,184.2
			L159.9,184.2z M122.4,411.9h-10.1v-55.7h10.1V411.9z M73,98.8c11.8,5.8,23,13.9,33,23.9c9.1,9.1,16.6,19.2,22.3,29.9
			c0.2,0.8,0.5,1.5,0.7,2.3c-0.7-0.3-1.5-0.5-2.3-0.7c-10.6-5.6-20.7-13.2-29.9-22.3C86.9,121.8,78.8,110.6,73,98.8L73,98.8z
			 M84.2,175.6c-14.2,0-27.9-2.2-40.3-6.4c12.4-4.2,26.1-6.4,40.3-6.4c12.9,0,25.4,1.8,36.9,5.4c0.7,0.4,1.4,0.7,2.1,1.1
			c-0.7,0.4-1.4,0.7-2.1,1.1C109.5,173.8,97.1,175.6,84.2,175.6L84.2,175.6z M106,215.6c-10,10-21.3,18.1-33,23.9
			c5.8-11.8,13.9-23,23.9-33c9.1-9.1,19.2-16.6,29.9-22.3c0.9-0.3,1.9-0.6,2.8-0.9C123.8,194.8,115.9,205.7,106,215.6z M143.3,69.7
			c4.2,12.4,6.4,26.1,6.4,40.3c0,12.9-1.8,25.4-5.4,36.9c-0.4,0.7-0.7,1.4-1.1,2.1c-0.3-0.7-0.7-1.4-1.1-2.1
			c-3.5-11.5-5.4-24-5.4-36.9C136.9,95.8,139.1,82.1,143.3,69.7z M178.8,453.7h-14.6v-135h14.6V453.7z M379.6,160.3l38.5,39.4h-38.5
			V160.3z M364.6,160.3v39.4h-38.5L364.6,160.3z M300.8,214.8h142.6v12.9H300.8L300.8,214.8z M305.9,453.7h-58.3V396
			c0-16.1,13.1-29.1,29.1-29.1s29.1,13.1,29.1,29.1L305.9,453.7L305.9,453.7z M461.5,453.7h-86.8V407c0-4.1-3.4-7.5-7.5-7.5
			s-7.5,3.4-7.5,7.5v46.7h-38.8V396c0-24.3-19.8-44.1-44.1-44.1s-44.1,19.8-44.1,44.1v57.6h-38.8V285.5h166V372
			c0,4.1,3.4,7.5,7.5,7.5s7.5-3.4,7.5-7.5v-88.7c0-7.1-5.8-12.9-12.9-12.9h-79.2v-27.9h178.9L461.5,453.7L461.5,453.7z M497,453.7
			h-20.5v-135H497V453.7z"/>
		<path class="st0" d="M71.7,341.2H47c-5.9,0-10.7,4.8-10.7,10.7v64.3c0,5.9,4.8,10.7,10.7,10.7h24.6c5.9,0,10.7-4.8,10.7-10.7
			v-64.3C82.4,346,77.6,341.2,71.7,341.2z M67.4,411.9H51.3v-55.7h16.1L67.4,411.9L67.4,411.9z"/>
		<path class="st0" d="M239.3,297.3h-22.5c-5.3,0-9.6,4.3-9.6,9.6v22.5c0,5.3,4.3,9.6,9.6,9.6h22.5c5.3,0,9.6-4.3,9.6-9.6v-22.5
			C248.9,301.6,244.6,297.3,239.3,297.3z M233.9,324h-11.8v-11.8h11.8V324z"/>
		<path class="st0" d="M288,297.3h-22.5c-5.3,0-9.6,4.3-9.6,9.6v22.5c0,5.3,4.3,9.6,9.6,9.6H288c5.3,0,9.6-4.3,9.6-9.6v-22.5
			C297.7,301.6,293.4,297.3,288,297.3z M282.7,324h-11.8v-11.8h11.8V324z"/>
		<path class="st0" d="M336.8,297.3h-22.5c-5.3,0-9.6,4.3-9.6,9.6v22.5c0,5.3,4.3,9.6,9.6,9.6h22.5c5.3,0,9.6-4.3,9.6-9.6v-22.5
			C346.4,301.6,342.1,297.3,336.8,297.3z M331.4,324h-11.8v-11.8h11.8V324z"/>
		<path class="st0" d="M405.9,418.3h24.6c5.9,0,10.7-4.8,10.7-10.7v-64.3c0-5.9-4.8-10.7-10.7-10.7h-24.6c-5.9,0-10.7,4.8-10.7,10.7
			v64.3C395.2,413.5,400,418.3,405.9,418.3z M410.2,347.6h16.1v55.7h-16.1V347.6z"/>
		<path class="st0" d="M405.2,316.5h26.1c5.5,0,10-4.5,10-10v-26.1c0-5.5-4.5-10-10-10h-26.1c-5.5,0-10,4.5-10,10v26.1
			C395.2,312.1,399.7,316.5,405.2,316.5z M410.2,285.5h16.1v16.1h-16.1V285.5z"/>
		<path class="st0" d="M214.6,376.5c-4.1,0-7.5,3.4-7.5,7.5v27.9c0,4.1,3.4,7.5,7.5,7.5s7.5-3.4,7.5-7.5V384
			C222.1,379.9,218.8,376.5,214.6,376.5z"/>
		<path class="st0" d="M338.9,376.5c-4.1,0-7.5,3.4-7.5,7.5v27.9c0,4.1,3.4,7.5,7.5,7.5s7.5-3.4,7.5-7.5V384
			C346.4,379.9,343.1,376.5,338.9,376.5z"/>
		<path class="st0" d="M447.2,118.7c20.8,0,37.7-16.9,37.7-37.7S468,43.3,447.2,43.3c-20.8,0-37.7,16.9-37.7,37.7
			S426.4,118.7,447.2,118.7z M447.2,58.3c12.5,0,22.7,10.2,22.7,22.7s-10.2,22.7-22.7,22.7c-12.5,0-22.7-10.2-22.7-22.7
			S434.7,58.3,447.2,58.3z"/>
	</g>
</g>
</svg>
