<?xml version="1.0" encoding="utf-8"?>
<!-- Generator: Adobe Illustrator 27.8.0, SVG Export Plug-In . SVG Version: 6.00 Build 0)  -->
<svg version="1.1" id="Layer_1" xmlns="http://www.w3.org/2000/svg" xmlns:xlink="http://www.w3.org/1999/xlink" x="0px" y="0px"
	 viewBox="0 0 512 512" style="enable-background:new 0 0 512 512;" xml:space="preserve">
<style type="text/css">
	.st0{fill:#502C14;}
</style>
<path class="st0" d="M98.1,460c-23.2,12-41.2,24.5-55,38.3c-6.9,6.9,3.8,17.3,10.6,10.6c12.7-12.7,29.5-24.3,51.3-35.6
	C113.2,469,106.8,455.5,98.1,460L98.1,460z"/>
<path class="st0" d="M368.1,360.8c-8.5-3.8-15,9.7-6.1,13.6c25.2,11.3,29.7,18.9,29.7,30.9c0,8.2-7.7,17.5-15.9,27.4
	c-12.3,14.8-26.2,31.7-20,52.6c2.8,9.2,17.1,5.1,14.3-4.3c-4-13.3,6.3-25.7,17.2-38.8c9.5-11.5,19.3-23.3,19.3-36.9
	C406.6,382.5,392.5,371.7,368.1,360.8z"/>
<path class="st0" d="M332.5,343.7c-16.7-6.8-55.8-22.6-62.2-40.7c-3.4-9.8,1.1-19.2,13.9-29c7.4-5.7-1.3-17.8-9.1-11.9
	c-22.8,17.4-22.9,34.5-18.9,45.8c7.5,21.5,38.4,36.5,70.6,49.6C335.7,361.1,341.6,347.4,332.5,343.7L332.5,343.7z"/>
<path class="st0" d="M24.9,77.6h52.8c13.7,0,24.9-11.2,24.9-24.9c0-12.2-8.8-22.3-20.3-24.5C80.4,12.9,67.2,1,51.3,1
	s-29,11.9-31.1,27.2C8.8,30.4,0,40.5,0,52.7C0,66.5,11.2,77.6,24.9,77.6z M24.9,42.7c7.6,0,10-2.9,10-10.4c0-9,7.4-16.4,16.4-16.4
	s16.4,7.4,16.4,16.4c0,5.2,1.5,11.6,8.4,10.5c6.2-1,11.6,3.8,11.6,9.9c0,5.5-4.5,10-10,10H24.9c-5.5,0-10-4.5-10-10
	S19.4,42.7,24.9,42.7z"/>
<path class="st0" d="M434.2,77.6h52.8c13.7,0,24.9-11.2,24.9-24.9c0-12.2-8.8-22.3-20.3-24.5C489.7,12.9,476.5,1,460.7,1
	s-29,11.9-31.1,27.2c-11.5,2.2-20.3,12.3-20.3,24.5C409.3,66.5,420.5,77.6,434.2,77.6z M434.2,42.7c7.6,0,10-2.9,10-10.4
	c0-9,7.4-16.4,16.4-16.4c9,0,16.4,7.4,16.4,16.4c0,5.2,1.5,11.6,8.4,10.5c6.2-1,11.6,3.8,11.6,9.9c0,5.5-4.5,10-10,10h-52.8
	c-5.5,0-10-4.5-10-10S428.7,42.7,434.2,42.7z"/>
<path class="st0" d="M151.4,386c-9.6,0-9.6,14.9,0,14.9C161,400.9,161,386,151.4,386z"/>
<path class="st0" d="M51.3,435.4c-9.6,0-9.6,14.9,0,14.9C60.9,450.3,60.9,435.4,51.3,435.4z"/>
<path class="st0" d="M480.1,462.7c-9.6,0-9.6,14.9,0,14.9C489.7,477.6,489.8,462.7,480.1,462.7z"/>
<path class="st0" d="M9.2,377.1c-9.6,0-9.6,14.9,0,14.9C18.8,392,18.8,377.1,9.2,377.1z"/>
<path class="st0" d="M504.8,377.1c-9.6,0-9.6,14.9,0,14.9C514.4,392,514.4,377.1,504.8,377.1z"/>
<path class="st0" d="M385.5,299.3c9.6,0,9.6-14.9,0-14.9C375.9,284.4,375.9,299.3,385.5,299.3z"/>
<path class="st0" d="M461,120.5c-14.4,0-26.8,16.4-37.9,50.1c-6.2,19-10.6,39.6-12.3,53.8c-16.5-1-31,1.1-42.8,4.2v-7.3
	c24.6-3.6,43.5-24.9,43.5-50.4c0-12.5-4.9-40.3-13.1-65.3c-11.1-33.7-23.5-50.1-37.9-50.1s-26.8,16.4-37.9,50.1
	c-8.2,25-13.1,52.8-13.1,65.3c0,25.6,18.9,46.8,43.5,50.4v12.1c-6.9,2.7-12.1,5.3-15.1,7c-9-2.3-35.2-8.2-68.2-7.1
	c9.2-12.7,15-27.7,16.7-43.4c2.5-23.7-4.5-47-19.5-65.6c-15-18.5-36.4-30.1-60.1-32.6c-25.5-2.6-50.9,5.8-69.7,23.1
	c-6.9,6.3,2.9,17.6,10.1,11c15.7-14.4,36.9-21.5,58.1-19.2c19.8,2.1,37.6,11.7,50.1,27.1c12.5,15.4,18.3,34.8,16.2,54.6
	c-1.8,17.1-9.5,33.2-21.7,45.3c-4,4-17.2,3.8-23,5.2c-8.9-2.8-44.5-13.6-92.9-19.4c-8.5-13.9-12.2-30.2-10.5-46.4
	c0.7-6.5,2.2-12.9,4.5-18.9c3.3-8.7-10.5-14.5-14-5.3c-2.8,7.3-4.6,14.9-5.4,22.7c-1.6,15.8,1,31.8,7.5,46.2
	c-3.3-0.3-6.6-0.5-10-0.8c-10.9-32-23-47.6-37-47.6c-14.2,0-26.4,15.9-37.4,48.6c-8,0.8-15.9,1.8-23.6,3.1c-9.6,1.6-7,16.3,2.4,14.7
	c5.4-0.9,10.9-1.7,16.5-2.3c-5.6,20.7-8.9,41.1-8.9,51.2c0,25.6,18.9,46.8,43.5,50.4v37c0,9.3,14.9,9.8,14.9,0v-37
	c24.6-3.6,43.5-24.9,43.5-50.4c0-10.4-3.4-31.3-9.2-52.5c37.1,2.9,69,9.6,89.4,14.7c-11.2,4.2-21.5,9.3-30.1,14.9
	c-22.7,14.7-34.8,33.2-34.8,53.5c0,26.6,25.5,36.6,46.9,43.9c22.9,7.9,36.8,13.9,36.8,29.8c0,18.8-32,32.2-69,47.6
	c-4.1,1.7-8.2,3.4-12.4,5.2c-6.2,2.6-5.5,11.1,0.2,13.6c5.2,2.3,13.2-3,18-5c42-17.5,78.2-32.6,78.2-61.4
	c0-26.6-25.5-36.6-46.9-43.9c-22.9-7.9-36.8-13.9-36.8-29.8c0-33.4,41.8-50.9,68.3-58.8c33.2-9.9,68.9-10.5,102.9-4.3
	c-10.6,9-23.3,23-22.4,37.7c1.5,23.2,32.5,30.6,50,37.3c36.6,14.1,86.7,33.3,95.7,63.7c10,33.7-33.5,55.2-25.4,89.1
	c2.9,12.2,12.1,22.3,27.3,30.1c8.2,4.2,15.6-8.8,6.8-13.3c-11.2-5.7-17.8-12.6-19.6-20.3c-4-16.6,11-30.9,18.2-44.1
	c7.6-14,11.7-30.2,7-45.8c-11.1-37.4-65.2-58.2-104.7-73.4c-10.1-3.9-39.5-10.5-40.4-24.3c-1-14.7,20.4-29.3,31.5-35.6
	c19.2-10.9,42.7-15.4,64.5-14c1.6,24,19.9,43.5,43.4,46.9v37c0,9.3,14.9,9.8,14.9,0v-37c7.4-1.1,14.5-3.8,20.7-8
	c7.8-5.2-0.1-17.9-8.3-12.4c-3.8,2.5-8,4.3-12.5,5.2v-35.6c0-9.3-14.9-9.8-14.9,0v35.6c-44.4-9.4-25.4-67.8-16.2-95.9
	c10.3-31.5,20-39.8,23.7-39.8c2.1,0,6,2.6,10.6,10c4.4,7,9,17.3,13,29.8c7.6,23.3,12.4,49.6,12.4,60.6c0,9.3,14.9,9.8,14.9,0
	c0-12.5-4.9-40.3-13.1-65.3C487.8,136.9,475.4,120.5,461,120.5L461,120.5z M324.6,170.9c0-11,4.7-37.4,12.4-60.6
	c10.3-31.5,20-39.8,23.7-39.8c2.1,0,6,2.6,10.6,10c4.4,7,9,17.3,13,29.8c7.6,23.3,12.4,49.6,12.4,60.6c0,17.3-12.3,31.8-28.6,35.2
	v-35.6c0-4.1-3.3-7.5-7.5-7.5c-4.1,0-7.5,3.3-7.5,7.5v35.6C336.8,202.7,324.6,188.2,324.6,170.9z M76.7,319.9v-35.6
	c0-9.3-14.9-9.8-14.9,0v35.6c-16.3-3.4-28.6-17.9-28.6-35.2c0-11,4.7-37.4,12.4-60.6c10.3-31.5,20-39.8,23.7-39.8
	c13.2,0,22.5,35.8,25.3,44.8c5.4,17.6,10.8,37.1,10.8,55.6C105.2,302,93,316.5,76.7,319.9z"/>
</svg>
