<?xml version="1.0" encoding="utf-8"?>
<!-- Generator: Adobe Illustrator 27.8.0, SVG Export Plug-In . SVG Version: 6.00 Build 0)  -->
<svg version="1.1" id="Layer_1" xmlns="http://www.w3.org/2000/svg" xmlns:xlink="http://www.w3.org/1999/xlink" x="0px" y="0px"
	 viewBox="0 0 512 512" style="enable-background:new 0 0 512 512;" xml:space="preserve">
<style type="text/css">
	.st0{fill:#502C14;}
</style>
<g id="Go_Green-2">
	<path class="st0" d="M477.4,274.6c-14.2-14.2-37.1-14.2-51.3,0c0,0,0,0,0,0l-62.1,62.1c-5.5-10.3-16.3-16.7-27.9-16.7h-90.9
		c-31-37.5-86.6-42.8-124.1-11.8c-2.1,1.8-4.2,3.7-6.2,5.6L80,348.7l-10.3-10.3c-3.1-3.1-8.2-3.1-11.3,0c0,0,0,0,0,0l-32,32
		c-3.1,3.1-3.1,8.2,0,11.3c0,0,0,0,0,0l128,128c3.1,3.1,8.2,3.1,11.3,0c0,0,0,0,0,0l32-32c3.1-3.1,3.1-8.2,0-11.3c0,0,0,0,0,0
		L187.3,456l9-9c4.5-4.5,10.6-7,17-7h116.9c21.2,0.1,41.6-8.4,56.6-23.4l90.6-90.6C491.5,311.8,491.5,288.8,477.4,274.6
		C477.4,274.6,477.4,274.6,477.4,274.6z M160,492.7L43.3,376L64,355.3L180.7,472L160,492.7z M466.1,314.6l-90.6,90.6
		c-12,12-28.3,18.8-45.3,18.7H213.3c-10.6,0-20.8,4.2-28.3,11.7l-9,9L91.3,360l34.9-34.9c28.2-28.2,73.9-28.2,102,0
		c2,2,3.8,4.1,5.6,6.3l1.2,1.6c1.5,1.9,3.8,3,6.3,3H336c8.8,0,16,7.2,16,16s-7.2,16-16,16H224c-4.4,0-8,3.6-8,8s3.6,8,8,8h112
		c16.2-0.1,29.8-12.2,31.6-28.3l69.7-69.7c8-7.7,20.7-7.7,28.7,0C474,293.9,474,306.7,466.1,314.6
		C466.1,314.6,466.1,314.6,466.1,314.6L466.1,314.6z"/>
	<path class="st0" d="M158,163c-0.1,0.2-0.3,0.2-0.4,0.4c0,0,0,0.1,0,0.1C133.2,194.5,120,232.7,120,272c0,1.3,0,2.6,0.1,3.9
		c0.3,4.2,3.8,7.4,8,7.4c0.2,0,0.4,0,0.6,0c4.4-0.3,7.7-4.1,7.4-8.5c0,0,0,0,0,0c-0.1-0.9-0.1-1.9-0.1-2.8
		c0-33.6,10.7-66.4,30.5-93.6c22.6,14.8,35.9,29,36.4,39.7c-0.8,10.1-4,19.9-9.3,28.5c-2.4,4.9-4.8,10-7.1,15.5
		c-1.7,4.1,0.2,8.8,4.3,10.5c4.1,1.7,8.8-0.2,10.5-4.3c2.2-5.2,4.5-10,6.7-14.6c6.6-11,10.4-23.5,10.9-36.4
		c-0.8-16.1-15.2-33.4-42.3-51.3c12.2-13.9,26.8-25.5,43-34.4c15.6,30.4,34.3,46.4,54.8,46.4c1.5,0,3-0.1,4.5-0.2
		c14.2-0.9,27.7-6.3,38.7-15.3c7-5.4,10-7.7,26.1-2.1c15.1,5.3,31-1.3,45.4-18.4c12.5,8.9,23.6,19.6,33,31.7
		c-9.6,10.3-17.2,22.3-22.3,35.4c-6.8,14.9-11.4,24.1-19.9,24.9c-5.5,0.3-11,0.3-16.5-0.1c-21.1-1-47.4-2.3-66.1,34.6
		c-4.3,8.3-7.1,17.3-8.5,26.5c-0.6,4.4,2.4,8.4,6.8,9c0.4,0.1,0.7,0.1,1.1,0.1c4,0,7.4-2.9,7.9-6.9c1.1-7.5,3.4-14.8,6.9-21.5
		c14-27.6,30.4-26.8,51.1-25.8c6.3,0.4,12.5,0.4,18.8,0c18.1-1.7,25.7-18.2,33-34.1c4.1-10.5,9.9-20.2,17.2-28.8
		c10.7,16.9,18.1,35.7,21.8,55.4c0.8,4.3,5,7.2,9.3,6.4c4.3-0.8,7.2-5,6.4-9.3c0,0,0,0,0,0C453.7,159.2,385.5,100,304,96.4v-8.8
		c0-9.1,5.2-17.5,13.4-21.5c9,10.5,22.1,16.5,36,16.5c6.5-0.1,12.9-1.2,19-3.4c10.2-3.6,19.9-8.5,28.8-14.6c7.9-7,19-9.1,28.8-5.2
		c4.3,1.1,8.6-1.5,9.7-5.8c0.6-2.4,0.1-5-1.5-6.9c-1.7-2.2-42.4-53.2-81.7-45.9c-37.8,7.1-42.3,30-44.1,49.9
		c-6.6,2.8-12.3,7.3-16.5,13c-4.2-5.7-9.9-10.2-16.5-13c-1.8-19.9-6.3-42.9-44.1-49.9c-39.2-7.3-79.9,43.7-81.7,45.9
		c-2.7,3.5-2.1,8.5,1.3,11.2c2,1.5,4.5,2.1,6.9,1.5c9.8-3.9,21-1.9,28.8,5.2c8.9,6.1,18.6,11.1,28.8,14.6c6.1,2.2,12.5,3.4,19,3.4
		c13.8,0,27-6,36-16.5c8.2,4,13.4,12.3,13.4,21.5v8.7C237,98.5,189.5,122.9,158,163z M359.6,16.5c17.5-3.3,38.5,11.9,52.7,25.6
		c-7.2,1.5-14,4.6-19.9,9.1c-7.8,5.4-16.3,9.8-25.3,12.9c-11.3,4.9-24.4,3.1-33.9-4.8l21.1-8.9c4.1-1.7,6-6.4,4.3-10.5
		s-6.4-6-10.5-4.3c0,0,0,0,0,0l-18.7,7.9C331.7,29.8,337.3,20.6,359.6,16.5z M224.9,64.1c-9-3.1-17.5-7.5-25.3-12.9
		c-5.9-4.5-12.7-7.6-19.9-9.1c14.2-13.6,35.1-28.8,52.8-25.6c22.3,4.2,27.9,13.4,30.1,27.1l-18.7-7.9c-4.1-1.7-8.8,0.2-10.5,4.3
		s0.2,8.8,4.3,10.5l0,0l21.1,8.9C249.3,67.1,236.2,69,224.9,64.1L224.9,64.1z M348.9,145.2c-22.6-7.9-31-3.3-41.2,4.5
		c-8.7,7.2-19.4,11.5-30.7,12.1c-19,2.2-34.2-19.8-43.2-37.2c46-19.4,98.3-16.2,141.6,8.6C368.5,140.9,358.7,148.6,348.9,145.2
		L348.9,145.2z"/>
</g>
</svg>
