<?xml version="1.0" encoding="utf-8"?>
<!-- Generator: Adobe Illustrator 27.8.0, SVG Export Plug-In . SVG Version: 6.00 Build 0)  -->
<svg version="1.1" id="Capa_1" xmlns="http://www.w3.org/2000/svg" xmlns:xlink="http://www.w3.org/1999/xlink" x="0px" y="0px"
	 viewBox="0 0 512 512" style="enable-background:new 0 0 512 512;" xml:space="preserve">
<style type="text/css">
	.st0{fill:#502C14;}
</style>
<g>
	<g id="HOUSE-34">
		<path class="st0" d="M504,432h-32.7v-9.5c13.1-3,22.3-14.7,22.2-28.2c0-0.8-6.5-80-28-80s-28,79.5-28,80
			c-0.1,13.4,9.1,25.1,22.2,28.2v9.5h-56V295.4l25.2,29.8c6.6,8,18.4-3,11.7-10.6L231,66.7c-1.5-1.7-3.7-2.7-5.9-2.7
			c-2.2,0.1-4.2,1-5.8,2.5L140.8,152h-102c-4.4,0-8,3.6-8,8v272H8c-4.4,0-8,3.6-8,8s3.6,8,8,8h496c4.4,0,8-3.6,8-8
			S508.4,432,504,432L504,432z M448.9,394.3c0-14.8,9.2-61.2,16-67.9c7.1,6.7,16,53.1,16,67.9c0.2,7-4,13.4-10.6,16
			c0-4.9,2-16-5.8-16c-7.8,0-5.5,11.1-5.8,16c-6.1-2.9-9.8-9.2-9.5-16H448.9z M387.8,288v144H279.3V288H387.8z M224.7,83.9L384,272
			H201.7V160c0-4.4-3.6-8-8-8h-32L224.7,83.9z M46.6,168h139.6v264h-15.5V208c0-4.4-3.6-8-8-8H93.1c-4.4,0-8,3.6-8,8v224H46.6
			L46.6,168z M155.1,360h-54.2V216h54.2V360z M100.9,432v-56h54.2v56H100.9z M201.7,432V288H264v144H201.7z"/>
	</g>
</g>
</svg>
